<?xml version="1.0" encoding="UTF-8"?>
<svg width="491px" height="48px" viewBox="0 0 491 48" version="1.1" xmlns="http://www.w3.org/2000/svg" xmlns:xlink="http://www.w3.org/1999/xlink">
    <!-- Generator: Sketch 51.3 (57544) - http://www.bohemiancoding.com/sketch -->
    <title>Group 7</title>
    <desc>Created with Sketch.</desc>
    <defs></defs>
    <g id="identixone" stroke="none" stroke-width="1" fill="none" fill-rule="evenodd">
        <g id="Group-7" fill="#FFFFFF">
            <g id="Group-3">
                <g id="Group">
                    <path d="M9.194,4.41997559 C9.194,5.02797863 9.0740012,5.59597295 8.834,6.12397559 C8.5939988,6.65197823 8.274002,7.10797367 7.874,7.49197559 C7.473998,7.87597751 6.9940028,8.17997447 6.434,8.40397559 C5.8739972,8.62797671 5.29000304,8.73997559 4.682,8.73997559 C3.4019936,8.73997559 2.33000432,8.31597983 1.466,7.46797559 C0.60199568,6.61997135 0.17,5.60398151 0.17,4.41997559 C0.17,3.84397271 0.28199888,3.29197823 0.506,2.76397559 C0.73000112,2.23597295 1.04999792,1.77997751 1.466,1.39597559 C1.88200208,1.01197367 2.36199728,0.699976786 2.906,0.459975586 C3.45000272,0.219974386 4.0419968,0.0999755859 4.682,0.0999755859 C5.29000304,0.0999755859 5.8739972,0.211974466 6.434,0.435975586 C6.9940028,0.659976706 7.473998,0.963973666 7.874,1.34797559 C8.274002,1.73197751 8.5939988,2.18797295 8.834,2.71597559 C9.0740012,3.24397823 9.194,3.81197255 9.194,4.41997559 Z M0.746,36 L0.746,12.096 L8.618,12.096 L8.618,36 L0.746,36 Z M31.554,36 L31.554,32.88 L31.458,32.88 C30.6899962,34.0960061 29.5940071,35.0319967 28.17,35.688 C26.7459929,36.3440033 25.234008,36.672 23.634,36.672 C21.841991,36.672 20.242007,36.3200035 18.834,35.616 C17.425993,34.9119965 16.2340049,33.9760058 15.258,32.808 C14.2819951,31.6399942 13.5380026,30.2880077 13.026,28.752 C12.5139974,27.2159923 12.258,25.6160083 12.258,23.952 C12.258,22.2879917 12.5219974,20.6960076 13.05,19.176 C13.5780026,17.6559924 14.3299951,16.3200058 15.306,15.168 C16.2820049,14.0159942 17.465993,13.1040034 18.858,12.432 C20.250007,11.7599966 21.8099914,11.424 23.538,11.424 C25.2980088,11.424 26.7859939,11.7599966 28.002,12.432 C29.2180061,13.1040034 30.1619966,13.839996 30.834,14.64 L30.93,14.64 L30.93,4 L38.802,4 L38.802,36 L31.554,36 Z M31.266,24 C31.266,23.2319962 31.1300014,22.4800037 30.858,21.744 C30.5859986,21.0079963 30.2020025,20.3520029 29.706,19.776 C29.2099975,19.1999971 28.6100035,18.7360018 27.906,18.384 C27.2019965,18.0319982 26.4020045,17.856 25.506,17.856 C24.5779954,17.856 23.7620035,18.0319982 23.058,18.384 C22.3539965,18.7360018 21.7620024,19.1919972 21.282,19.752 C20.8019976,20.3120028 20.4420012,20.9599963 20.202,21.696 C19.9619988,22.4320037 19.842,23.1839962 19.842,23.952 C19.842,24.7200038 19.9619988,25.4799962 20.202,26.232 C20.4420012,26.9840038 20.8019976,27.6479971 21.282,28.224 C21.7620024,28.8000029 22.3539965,29.2639982 23.058,29.616 C23.7620035,29.9680018 24.5779954,30.144 25.506,30.144 C26.4020045,30.144 27.2019965,29.9680018 27.906,29.616 C28.6100035,29.2639982 29.2099975,28.8000029 29.706,28.224 C30.2020025,27.6479971 30.5859986,26.9920037 30.858,26.256 C31.1300014,25.5199963 31.266,24.7680038 31.266,24 Z M59.706,21.312 C59.706,20.0639938 59.3140039,18.9920045 58.53,18.096 C57.7459961,17.1999955 56.5700078,16.752 55.002,16.752 C54.2339962,16.752 53.5300032,16.8719988 52.89,17.112 C52.2499968,17.3520012 51.6900024,17.6799979 51.21,18.096 C50.7299976,18.5120021 50.3460014,18.9999972 50.058,19.56 C49.7699986,20.1200028 49.6100002,20.703997 49.578,21.312 L59.706,21.312 Z M66.954,24.336 L66.954,25.296 C66.954,25.6160016 66.9380002,25.9199986 66.906,26.208 L49.578,26.208 C49.6420003,26.8800034 49.8419983,27.4879973 50.178,28.032 C50.5140017,28.5760027 50.9459974,29.047998 51.474,29.448 C52.0020026,29.848002 52.5939967,30.1599989 53.25,30.384 C53.9060033,30.6080011 54.5859965,30.72 55.29,30.72 C56.5380062,30.72 57.5939957,30.4880023 58.458,30.024 C59.3220043,29.5599977 60.0259973,28.9600037 60.57,28.224 L66.042,31.68 C64.9219944,33.3120082 63.4420092,34.5679956 61.602,35.448 C59.7619908,36.3280044 57.6260122,36.768 55.194,36.768 C53.401991,36.768 51.706008,36.4880028 50.106,35.928 C48.505992,35.3679972 47.106006,34.5520054 45.906,33.48 C44.705994,32.4079946 43.7620034,31.0880078 43.074,29.52 C42.3859966,27.9519922 42.042,26.1600101 42.042,24.144 C42.042,22.1919902 42.3779966,20.4240079 43.05,18.84 C43.7220034,17.2559921 44.6339942,15.9120055 45.786,14.808 C46.9380058,13.7039945 48.2979922,12.848003 49.866,12.24 C51.4340078,11.631997 53.1299909,11.328 54.954,11.328 C56.7140088,11.328 58.3299926,11.623997 59.802,12.216 C61.2740074,12.808003 62.5379947,13.6639944 63.594,14.784 C64.6500053,15.9040056 65.473997,17.263992 66.066,18.864 C66.658003,20.464008 66.954,22.2879898 66.954,24.336 Z M86.346,36 L86.346,22.944 C86.346,22.2719966 86.2900006,21.632003 86.178,21.024 C86.0659994,20.415997 85.8820013,19.8800023 85.626,19.416 C85.3699987,18.9519977 85.0100023,18.5840014 84.546,18.312 C84.0819977,18.0399986 83.4980035,17.904 82.794,17.904 C82.0899965,17.904 81.4740026,18.0399986 80.946,18.312 C80.4179974,18.5840014 79.9780018,18.9599976 79.626,19.44 C79.2739982,19.9200024 79.0100009,20.4719969 78.834,21.096 C78.6579991,21.7200031 78.57,22.3679966 78.57,23.04 L78.57,36 L70.65,36 L70.65,12.096 L78.282,12.096 L78.282,15.408 L78.378,15.408 C78.6660014,14.8959974 79.0419977,14.3920025 79.506,13.896 C79.9700023,13.3999975 80.5139969,12.9760018 81.138,12.624 C81.7620031,12.2719982 82.4419963,11.9840011 83.178,11.76 C83.9140037,11.5359989 84.6979958,11.424 85.53,11.424 C87.130008,11.424 88.4899944,11.7119971 89.61,12.288 C90.7300056,12.8640029 91.6339966,13.6079954 92.322,14.52 C93.0100034,15.4320046 93.5059985,16.4799941 93.81,17.664 C94.1140015,18.8480059 94.266,20.0319941 94.266,21.216 L94.266,36 L86.346,36 Z M108.762,18 L108.762,27.12 C108.762,28.2400056 108.977998,29.0799972 109.41,29.64 C109.842002,30.2000028 110.617994,30.48 111.738,30.48 C112.122002,30.48 112.529998,30.4480003 112.962,30.384 C113.394002,30.3199997 113.753999,30.2240006 114.042,30.096 L114.138,35.856 C113.593997,36.048001 112.906004,36.2159993 112.074,36.36 C111.241996,36.5040007 110.410004,36.576 109.578,36.576 C107.977992,36.576 106.634005,36.376002 105.546,35.976 C104.457995,35.575998 103.586003,35.0000038 102.93,34.248 C102.273997,33.4959962 101.802001,32.6000052 101.514,31.56 C101.225999,30.5199948 101.082,29.3600064 101.082,28.08 L101.082,18 L97.242,18 L97.242,12.096 L101.034,12.096 L101.034,4 L108.762,4 L108.762,12.096 L114.378,12.096 L114.378,18 L108.762,18 Z M127.318,43.6799854 C127.318,44.2879884 127.198001,44.8559827 126.958,45.3839854 C126.717999,45.911988 126.398002,46.3679834 125.998,46.7519854 C125.597998,47.1359873 125.118003,47.4399842 124.558,47.6639854 C123.997997,47.8879865 123.414003,47.9999854 122.806,47.9999854 C121.525994,47.9999854 120.454004,47.5759896 119.59,46.7279854 C118.725996,45.8799811 118.294,44.8639913 118.294,43.6799854 C118.294,43.1039825 118.405999,42.551988 118.63,42.0239854 C118.854001,41.4959827 119.173998,41.0399873 119.59,40.6559854 C120.006002,40.2719834 120.485997,39.9599866 121.03,39.7199854 C121.574003,39.4799842 122.165997,39.3599854 122.806,39.3599854 C123.414003,39.3599854 123.997997,39.4719842 124.558,39.6959854 C125.118003,39.9199865 125.597998,40.2239834 125.998,40.6079854 C126.398002,40.9919873 126.717999,41.4479827 126.958,41.9759854 C127.198001,42.503988 127.318,43.0719823 127.318,43.6799854 Z M118.87,36 L118.87,12.096 L126.742,12.096 L126.742,36 L118.87,36 Z M149.302,36 L144.166,28.656 L138.886,36 L129.766,36 L139.318,23.472 L130.678,12.096 L139.846,12.096 L144.31,18.48 L148.822,12.096 L157.702,12.096 L149.11,23.472 L158.566,36 L149.302,36 Z" id="identix"></path>
                    <path d="M184.557172,24.001 C184.557172,25.7641235 184.271485,27.3802959 183.700102,28.8495655 C183.128719,30.3188351 182.320633,31.5840205 181.275819,32.6451597 C180.231005,33.7062989 178.982145,34.53071 177.529201,35.1184178 C176.076256,35.7061257 174.484571,35.9999752 172.754098,35.9999752 C171.023625,35.9999752 169.440103,35.7061257 168.003483,35.1184178 C166.566864,34.53071 165.326166,33.7062989 164.281352,32.6451597 C163.236538,31.5840205 162.428452,30.3188351 161.85707,28.8495655 C161.285687,27.3802959 161,25.7641235 161,24.001 C161,22.2378764 161.285687,20.6298666 161.85707,19.1769222 C162.428452,17.7239778 163.236538,16.4751174 164.281352,15.4303034 C165.326166,14.3854895 166.566864,13.5692408 168.003483,12.9815329 C169.440103,12.3938251 171.023625,12.0999756 172.754098,12.0999756 C174.484571,12.0999756 176.076256,12.3938251 177.529201,12.9815329 C178.982145,13.5692408 180.231005,14.3854895 181.275819,15.4303034 C182.320633,16.4751174 183.128719,17.7239778 183.700102,19.1769222 C184.271485,20.6298666 184.557172,22.2378764 184.557172,24.001 Z M183.479713,24.001 C183.479713,22.4990799 183.234838,21.0788073 182.745082,19.7401394 C182.255325,18.4014715 181.545189,17.2342359 180.614651,16.2383977 C179.684114,15.2425594 178.557691,14.4589606 177.235348,13.887578 C175.913005,13.3161954 174.41927,13.0305084 172.754098,13.0305084 C171.088926,13.0305084 169.603353,13.3161954 168.297336,13.887578 C166.991319,14.4589606 165.873058,15.2425594 164.94252,16.2383977 C164.011983,17.2342359 163.301847,18.4014715 162.81209,19.7401394 C162.322334,21.0788073 162.077459,22.4990799 162.077459,24.001 C162.077459,25.5355705 162.322334,26.9721681 162.81209,28.310836 C163.301847,29.6495039 164.011983,30.8167394 164.94252,31.8125777 C165.873058,32.808416 166.991319,33.6001772 168.297336,34.1878851 C169.603353,34.7755929 171.088926,35.0694424 172.754098,35.0694424 C174.41927,35.0694424 175.913005,34.7755929 177.235348,34.1878851 C178.557691,33.6001772 179.684114,32.808416 180.614651,31.8125777 C181.545189,30.8167394 182.255325,29.6495039 182.745082,28.310836 C183.234838,26.9721681 183.479713,25.5355705 183.479713,24.001 Z M189.431309,18.7116558 C189.757813,17.6668419 190.231238,16.7363184 190.851596,15.9200575 C191.471954,15.1037966 192.173928,14.4099852 192.957538,13.8386026 C193.741149,13.26722 194.590048,12.8346082 195.50426,12.5407543 C196.418472,12.2469003 197.36532,12.0999756 198.344833,12.0999756 C199.912054,12.0999756 201.218052,12.3775001 202.262866,12.9325575 C203.30768,13.487615 204.140254,14.2222387 204.760612,15.1364509 C205.38097,16.0506632 205.821745,17.0791365 206.082948,18.2219017 C206.344152,19.364667 206.474751,20.5237401 206.474751,21.6991558 L206.474751,35.3143195 L205.397292,35.3143195 L205.397292,21.7971066 C205.397292,20.8828944 205.299343,19.903396 205.10344,18.858582 C204.907537,17.8137681 204.540225,16.8669196 204.001493,16.0180083 C203.462761,15.169097 202.7363,14.4589606 201.822088,13.887578 C200.907875,13.3161954 199.748802,13.0305084 198.344833,13.0305084 C197.104117,13.0305084 195.936881,13.2835454 194.843092,13.7896272 C193.749302,14.295709 192.802454,15.0221703 192.002518,15.9690329 C191.202582,16.9158955 190.565908,18.0668061 190.092477,19.4217992 C189.619046,20.7767923 189.382334,22.3195023 189.382334,24.0499754 L189.382334,35.3143195 L188.304875,35.3143195 L188.304875,18.4667788 C188.304875,18.107624 188.296712,17.6668497 188.280387,17.1444427 C188.264062,16.6220357 188.247737,16.0914741 188.231411,15.5527419 C188.215086,15.0140097 188.190599,14.4997731 188.157948,14.0100165 C188.125298,13.52026 188.092648,13.1121357 188.059998,12.7856313 L189.137457,12.7856313 C189.170107,13.1121357 189.194594,13.52026 189.21092,14.0100165 C189.227245,14.4997731 189.24357,15.0303347 189.259895,15.6017173 C189.27622,16.1731 189.292545,16.728149 189.30887,17.2668812 C189.325196,17.8056134 189.333358,18.2872001 189.333358,18.7116558 L189.431309,18.7116558 Z M210.867437,23.8050983 C210.867437,25.1764167 211.071499,26.5313894 211.47963,27.8700573 C211.88776,29.2087252 212.508109,30.4086107 213.340695,31.4697499 C214.173281,32.530889 215.226242,33.3879501 216.499609,34.0409588 C217.772976,34.6939676 219.274874,35.020467 221.005347,35.020467 C222.76847,35.020467 224.335668,34.6694801 225.706986,33.9674957 C227.078304,33.2655114 228.270027,32.2452005 229.282191,30.9065327 L230.065797,31.5921884 C228.955683,33.0288076 227.657847,34.1225808 226.172252,34.8735408 C224.686658,35.6245008 222.964373,35.9999752 221.005347,35.9999752 C219.340174,35.9999752 217.821952,35.6979632 216.450634,35.0939301 C215.079315,34.4898971 213.895755,33.649161 212.899917,32.5716966 C211.904078,31.4942322 211.136804,30.2045593 210.598072,28.7026393 C210.05934,27.2007192 209.789978,25.5682219 209.789978,23.8050983 C209.789978,22.1072757 210.067503,20.5400783 210.62256,19.1034591 C211.177617,17.6668399 211.936729,16.4261419 212.899917,15.381328 C213.863104,14.336514 214.99769,13.5284279 216.303707,12.9570452 C217.609725,12.3856626 219.013673,12.0999756 220.515593,12.0999756 C222.278716,12.0999756 223.813264,12.4101501 225.119281,13.0305084 C226.425298,13.6508666 227.510909,14.4671153 228.376146,15.4792788 C229.241382,16.4914423 229.886219,17.6423529 230.310674,18.9320451 C230.73513,20.2217374 230.947355,21.5358977 230.947355,22.8745656 L230.947355,23.8050983 L210.867437,23.8050983 Z M230.129992,23.0999756 C230.096594,21.5970625 229.837763,20.2277623 229.353491,18.9920337 C228.869219,17.7563052 228.209617,16.6959324 227.374665,15.8108836 C226.539713,14.9258348 225.537786,14.2411847 224.368854,13.7569127 C223.199921,13.2726407 221.897416,13.0305084 220.461299,13.0305084 C218.7246,13.0305084 217.238408,13.3895322 216.00268,14.1075907 C214.766951,14.8256491 213.756675,15.7106847 212.97182,16.7627238 C212.186965,17.814763 211.610857,18.9168827 211.243479,20.069116 C210.8761,21.2213494 210.692413,22.2316258 210.692413,23.0999756 L230.129992,23.0999756 Z" id="one"></path>
                </g>
            </g>
            <path d="M247.450266,12.5257205 L247.450266,37.2382817 C247.450266,38.1993305 247.324417,39.0955333 247.072713,39.9269168 C246.82101,40.7583003 246.424393,41.4828898 245.882849,42.1007069 C245.341306,42.718524 244.639598,43.2028549 243.777705,43.553714 C242.915812,43.9045731 241.874692,44.08 240.654312,44.08 C240.150906,44.08 239.689457,44.0418637 239.269951,43.96559 C238.850446,43.8893163 238.427133,43.7825347 238,43.645242 L238.183056,41.2197499 C238.244075,40.9299097 238.377552,40.7697373 238.583491,40.7392278 C238.78943,40.7087184 239.182234,40.6934638 239.761914,40.6934638 C240.936529,40.6934638 241.7679,40.4265098 242.256052,39.8925938 C242.744204,39.3586778 242.988276,38.4739159 242.988276,37.2382817 L242.988276,12.5257205 L247.450266,12.5257205 Z M248.2969,5.34077216 C248.2969,5.75265024 248.213001,6.14545399 248.045198,6.51919521 C247.877396,6.89293643 247.648579,7.2209085 247.358738,7.50312126 C247.068898,7.78533402 246.737113,8.00652448 246.363371,8.16669929 C245.98963,8.3268741 245.589199,8.4069603 245.162066,8.4069603 C244.750188,8.4069603 244.361198,8.3268741 243.995084,8.16669929 C243.62897,8.00652448 243.304812,7.78533402 243.022599,7.50312126 C242.740386,7.2209085 242.519196,6.89293643 242.359021,6.51919521 C242.198846,6.14545399 242.11876,5.75265024 242.11876,5.34077216 C242.11876,4.91363934 242.198846,4.51320832 242.359021,4.1394671 C242.519196,3.76572588 242.740386,3.43775381 243.022599,3.15554105 C243.304812,2.8733283 243.62897,2.65213783 243.995084,2.49196302 C244.361198,2.33178821 244.750188,2.25170201 245.162066,2.25170201 C245.589199,2.25170201 245.98963,2.33178821 246.363371,2.49196302 C246.737113,2.65213783 247.068898,2.8733283 247.358738,3.15554105 C247.648579,3.43775381 247.877396,3.76572588 248.045198,4.1394671 C248.213001,4.51320832 248.2969,4.91363934 248.2969,5.34077216 Z M266.615214,16.5300707 C266.493176,16.7283824 266.363512,16.8694866 266.22622,16.9533877 C266.088927,17.0372888 265.9135,17.0792387 265.699934,17.0792387 C265.455858,17.0792387 265.18509,16.9953389 264.887622,16.8275367 C264.590155,16.6597345 264.231674,16.4766803 263.812168,16.2783687 C263.392663,16.080057 262.900705,15.8970028 262.336279,15.7292007 C261.771854,15.5613985 261.100655,15.4774986 260.322663,15.4774986 C259.681964,15.4774986 259.098479,15.5575848 258.57219,15.7177597 C258.045902,15.8779345 257.599707,16.0991249 257.233593,16.3813377 C256.867479,16.6635504 256.585271,16.9991498 256.386959,17.3881457 C256.188647,17.7771417 256.089493,18.1928272 256.089493,18.6352148 C256.089493,19.214895 256.261106,19.6954123 256.604338,20.0767809 C256.94757,20.4581495 257.397578,20.7861215 257.954376,21.0607069 C258.511174,21.3352923 259.144237,21.5831782 259.853582,21.8043719 C260.562928,22.0255657 261.287517,22.2581971 262.027372,22.502273 C262.767227,22.7463489 263.491817,23.0247438 264.201162,23.337466 C264.910508,23.6501883 265.54357,24.0391784 266.100369,24.5044481 C266.657167,24.9697178 267.107175,25.5303212 267.450407,26.1862751 C267.793638,26.8422291 267.965252,27.6430912 267.965252,28.5888853 C267.965252,29.6719721 267.770757,30.6749564 267.381761,31.5978684 C266.992765,32.5207804 266.42072,33.3178288 265.665611,33.9890375 C264.910501,34.6602462 263.976162,35.186527 262.862565,35.5678956 C261.748969,35.9492642 260.475217,36.1399456 259.041271,36.1399456 C257.439523,36.1399456 255.959835,35.8729916 254.602163,35.3390756 C253.244491,34.8051596 252.108029,34.1263336 251.192745,33.3025775 L252.245317,31.5864274 C252.367355,31.372861 252.5199,31.208875 252.702957,31.0944644 C252.886014,30.9800538 253.130086,30.9228494 253.435181,30.9228494 C253.725021,30.9228494 254.022484,31.029631 254.327579,31.2431974 C254.632674,31.4567638 254.998782,31.6893952 255.425915,31.9410984 C255.853048,32.1928017 256.371701,32.4216194 256.981891,32.6275585 C257.592081,32.8334975 258.354807,32.9364655 259.270091,32.9364655 C260.032828,32.9364655 260.6964,32.8411248 261.260825,32.6504405 C261.825251,32.4597562 262.294327,32.2004294 262.668068,31.8724524 C263.04181,31.5444754 263.320204,31.1669262 263.503261,30.7397934 C263.686318,30.3126605 263.777845,29.8626524 263.777845,29.3897553 C263.777845,28.7795656 263.606232,28.2723529 263.263,27.8681022 C262.919769,27.4638515 262.46976,27.1168113 261.912962,26.8269712 C261.356164,26.5371311 260.719288,26.2854316 260.002315,26.0718651 C259.285342,25.8582987 258.553126,25.629481 257.805643,25.3854051 C257.058161,25.1413292 256.325944,24.8591207 255.608971,24.5387711 C254.891998,24.2184215 254.255122,23.8141768 253.698324,23.326025 C253.141526,22.8378732 252.691518,22.2429471 252.348286,21.5412289 C252.005054,20.8395107 251.833441,19.9852579 251.833441,18.9784448 C251.833441,18.0784149 252.020309,17.2165348 252.39405,16.3927787 C252.767791,15.5690225 253.309326,14.8444331 254.018672,14.2189886 C254.728018,13.5935441 255.605152,13.0939587 256.650102,12.7202175 C257.695052,12.3464763 258.888718,12.1596085 260.231135,12.1596085 C261.771864,12.1596085 263.163839,12.4036807 264.4071,12.8918325 C265.650362,13.3799843 266.714364,14.051183 267.59914,14.9054486 L266.615214,16.5300707 Z M283.891209,2 L283.891209,35.7738336 L279.406337,35.7738336 L279.406337,2 L283.891209,2 Z M293.903356,12.5257205 L293.903356,35.7738336 L289.441365,35.7738336 L289.441365,12.5257205 L293.903356,12.5257205 Z M294.74999,5.34077216 C294.74999,5.75265024 294.66609,6.14545399 294.498288,6.51919521 C294.330485,6.89293643 294.105481,7.2209085 293.823269,7.50312126 C293.541056,7.78533402 293.20927,8.00652448 292.827902,8.16669929 C292.446533,8.3268741 292.049916,8.4069603 291.638038,8.4069603 C291.226159,8.4069603 290.837169,8.3268741 290.471055,8.16669929 C290.104942,8.00652448 289.780783,7.78533402 289.49857,7.50312126 C289.216358,7.2209085 288.995167,6.89293643 288.834992,6.51919521 C288.674818,6.14545399 288.594731,5.75265024 288.594731,5.34077216 C288.594731,4.91363934 288.674818,4.51320832 288.834992,4.1394671 C288.995167,3.76572588 289.216358,3.43775381 289.49857,3.15554105 C289.780783,2.8733283 290.104942,2.65213783 290.471055,2.49196302 C290.837169,2.33178821 291.226159,2.25170201 291.638038,2.25170201 C292.049916,2.25170201 292.446533,2.33178821 292.827902,2.49196302 C293.20927,2.65213783 293.541056,2.8733283 293.823269,3.15554105 C294.105481,3.43775381 294.330485,3.76572588 294.498288,4.1394671 C294.66609,4.51320832 294.74999,4.91363934 294.74999,5.34077216 Z M303.823974,30.0533333 C304.556202,31.0143822 305.349437,31.6855808 306.203702,32.0669494 C307.057968,32.448318 307.988493,32.6389995 308.995307,32.6389995 C311.069952,32.6389995 312.667862,31.8991555 313.789086,30.4194454 C314.910309,28.9397352 315.470913,26.7049488 315.470913,23.715019 C315.470913,20.9539104 314.975141,18.9288736 313.983583,17.6398477 C312.992024,16.3508219 311.588609,15.7063187 309.773295,15.7063187 C308.491896,15.7063187 307.38213,15.9961544 306.443963,16.5758347 C305.505797,17.155515 304.632476,17.9792588 303.823974,19.0470908 L303.823974,30.0533333 Z M303.823974,15.7292007 C304.785023,14.6613686 305.875721,13.7994885 307.0961,13.1435345 C308.31648,12.4875806 309.704641,12.1596085 311.260625,12.1596085 C312.618297,12.1596085 313.842472,12.4227489 314.933186,12.9490375 C316.0239,13.4753262 316.950612,14.2304247 317.713349,15.2143556 C318.476086,16.1982866 319.063385,17.3919524 319.475263,18.7953888 C319.887141,20.1988252 320.093077,21.7852948 320.093077,23.554845 C320.093077,25.4311785 319.860446,27.1396842 319.395176,28.6804133 C318.929906,30.2211424 318.266335,31.5406579 317.404442,32.6389995 C316.542549,33.737341 315.493801,34.5877802 314.258167,35.1903426 C313.022533,35.792905 311.634372,36.0941816 310.093643,36.0941816 C309.34616,36.0941816 308.659707,36.0217227 308.034263,35.8768026 C307.408818,35.7318825 306.83296,35.522133 306.306671,35.2475476 C305.780383,34.9729622 305.296052,34.6373629 304.853664,34.2407395 C304.411277,33.8441162 303.991778,33.394108 303.595154,32.8907015 L303.389216,34.8356716 C303.267178,35.4611161 302.885815,35.7738336 302.245116,35.7738336 L299.361984,35.7738336 L299.361984,2 L303.823974,2 L303.823974,15.7292007 Z M328.274664,16.9877107 C329.022146,15.4622363 329.922162,14.2647569 330.97474,13.3952365 C332.027317,12.5257162 333.293442,12.0909625 334.773152,12.0909625 C335.276559,12.0909625 335.753262,12.1481669 336.203277,12.2625775 C336.653292,12.3769881 337.046096,12.5486014 337.3817,12.7774225 L337.084234,16.1410767 C336.977451,16.5529548 336.725751,16.7588907 336.329128,16.7588907 C336.115562,16.7588907 335.795217,16.7169408 335.368084,16.6330397 C334.940951,16.5491386 334.483316,16.5071887 333.995164,16.5071887 C333.278191,16.5071887 332.645129,16.6101567 332.095958,16.8160957 C331.546787,17.0220347 331.054829,17.327125 330.620069,17.7313757 C330.185309,18.1356265 329.800132,18.6313982 329.464528,19.2187058 C329.128923,19.8060134 328.816206,20.4733985 328.526366,21.2208809 L328.526366,35.7738336 L324.064375,35.7738336 L324.064375,12.5257205 L326.62716,12.5257205 C327.115311,12.5257205 327.447097,12.613434 327.622527,12.7888635 C327.797956,12.9642931 327.923806,13.273197 328.00008,13.7155846 L328.274664,16.9877107 Z M351.947365,25.4540511 C350.132051,25.5150701 348.591345,25.6561744 347.325201,25.8773681 C346.059057,26.0985619 345.029377,26.3922113 344.236131,26.7583252 C343.442884,27.124439 342.87084,27.5553791 342.519981,28.0511582 C342.169121,28.5469374 341.993695,29.0999136 341.993695,29.7101033 C341.993695,30.2897836 342.089035,30.7893689 342.27972,31.2088744 C342.470404,31.6283798 342.729731,31.9716064 343.057708,32.2385644 C343.385685,32.5055225 343.770861,32.7000175 344.213249,32.8220555 C344.655636,32.9440934 345.136153,33.0051115 345.654815,33.0051115 C346.341278,33.0051115 346.970527,32.9364662 347.54258,32.7991735 C348.114633,32.6618808 348.652354,32.4673857 349.155761,32.2156824 C349.659167,31.9639792 350.139685,31.6550752 350.597327,31.2889614 C351.054969,30.9228475 351.504977,30.5033484 351.947365,30.0304513 L351.947365,25.4540511 Z M338.85886,15.7749647 C340.155514,14.5393304 341.562743,13.6164323 343.08059,13.0062425 C344.598437,12.3960528 346.264992,12.0909625 348.080307,12.0909625 C349.40747,12.0909625 350.582067,12.3083393 351.604135,12.7430995 C352.626203,13.1778597 353.488083,13.7842267 354.189801,14.5622186 C354.891519,15.3402105 355.421614,16.2707359 355.7801,17.3538227 C356.138587,18.4369095 356.317827,19.6343889 356.317827,20.9462969 L356.317827,35.7738336 L354.327093,35.7738336 C353.884706,35.7738336 353.549106,35.7013747 353.320285,35.5564546 C353.091464,35.4115345 352.90841,35.1407669 352.771117,34.7441436 L352.290595,32.7076455 C351.69566,33.2568162 351.108361,33.7411471 350.528681,34.1606525 C349.949001,34.580158 349.342634,34.9386391 348.709562,35.2361066 C348.07649,35.5335741 347.401478,35.7585782 346.684505,35.9111256 C345.967532,36.063673 345.174297,36.1399456 344.304777,36.1399456 C343.389492,36.1399456 342.531426,36.0140959 341.730552,35.7623926 C340.929677,35.5106893 340.231783,35.1255128 339.636848,34.6068515 C339.041913,34.0881903 338.572837,33.4398734 338.229605,32.6618815 C337.886374,31.8838895 337.71476,30.9762459 337.71476,29.9389233 C337.71476,29.0236387 337.962646,28.1426905 338.458425,27.2960522 C338.954205,26.4494139 339.762694,25.6905018 340.883917,25.0192931 C342.005141,24.3480844 343.469575,23.7989218 345.277262,23.371789 C347.084949,22.9446562 349.308294,22.700584 351.947365,22.639565 L351.947365,20.9462969 C351.947365,19.1920014 351.573629,17.8801131 350.826147,17.0105927 C350.078665,16.1410723 348.980339,15.7063187 347.531139,15.7063187 C346.554835,15.7063187 345.734905,15.8283548 345.071324,16.0724307 C344.407742,16.3165066 343.835698,16.5872742 343.355174,16.8847417 C342.874649,17.1822092 342.45515,17.4529768 342.096664,17.6970527 C341.738177,17.9411286 341.368255,18.0631648 340.986886,18.0631648 C340.681792,18.0631648 340.418651,17.9792649 340.197457,17.8114628 C339.976264,17.6436606 339.797023,17.4453519 339.65973,17.2165307 L338.85886,15.7749647 Z M365.506222,16.9877107 C366.253704,15.4622363 367.153721,14.2647569 368.206298,13.3952365 C369.258875,12.5257162 370.525,12.0909625 372.00471,12.0909625 C372.508117,12.0909625 372.98482,12.1481669 373.434835,12.2625775 C373.88485,12.3769881 374.277654,12.5486014 374.613258,12.7774225 L374.315792,16.1410767 C374.209009,16.5529548 373.95731,16.7588907 373.560686,16.7588907 C373.34712,16.7588907 373.026775,16.7169408 372.599642,16.6330397 C372.172509,16.5491386 371.714874,16.5071887 371.226722,16.5071887 C370.509749,16.5071887 369.876687,16.6101567 369.327516,16.8160957 C368.778345,17.0220347 368.286387,17.327125 367.851627,17.7313757 C367.416867,18.1356265 367.03169,18.6313982 366.696086,19.2187058 C366.360482,19.8060134 366.047764,20.4733985 365.757924,21.2208809 L365.757924,35.7738336 L361.295934,35.7738336 L361.295934,12.5257205 L363.858718,12.5257205 C364.34687,12.5257205 364.678655,12.613434 364.854085,12.7888635 C365.029514,12.9642931 365.155364,13.273197 365.231638,13.7155846 L365.506222,16.9877107 Z M397.37068,12.5257205 L384.465231,42.5240239 C384.327938,42.8596283 384.144884,43.118955 383.916063,43.302012 C383.687242,43.4850689 383.351642,43.576596 382.909255,43.576596 L379.591365,43.576596 L383.847417,34.3093855 L374.305622,12.5257205 L378.195563,12.5257205 C378.576931,12.5257205 378.874394,12.6172476 379.087961,12.8003045 C379.301527,12.9833614 379.454072,13.1892974 379.545601,13.4181185 L385.449157,27.3761392 C385.571195,27.7269983 385.689417,28.0816658 385.803828,28.4401523 C385.918239,28.7986387 386.013579,29.1533062 386.089853,29.5041653 C386.196636,29.1380515 386.311045,28.7757567 386.433083,28.4172703 C386.555121,28.0587838 386.684784,27.7041163 386.822077,27.3532572 L392.519695,13.4181185 C392.626479,13.1587879 392.794278,12.9452247 393.023099,12.7774225 C393.251921,12.6096203 393.511247,12.5257205 393.801087,12.5257205 L397.37068,12.5257205 Z M420.168045,18.1546928 C419.435818,17.1936439 418.646396,16.5224453 417.799758,16.1410767 C416.95312,15.7597081 416.003526,15.5690266 414.950949,15.5690266 C412.906813,15.5690266 411.324157,16.305057 410.202934,17.7771397 C409.08171,19.2492225 408.521107,21.3962955 408.521107,24.2184231 C408.521107,25.6981332 408.646956,26.9604443 408.89866,28.0053942 C409.150363,29.0503442 409.516471,29.904597 409.996996,30.5681784 C410.47752,31.2317597 411.068633,31.7199042 411.770351,32.0326264 C412.472069,32.3453487 413.265304,32.5017074 414.150079,32.5017074 C415.446732,32.5017074 416.567939,32.2118717 417.513733,31.6321914 C418.459527,31.0525111 419.344289,30.2363946 420.168045,29.1838173 L420.168045,18.1546928 Z M424.652917,2 L424.652917,35.7738336 L421.952841,35.7738336 C421.327397,35.7738336 420.938407,35.4763706 420.785859,34.8814356 L420.396865,32.2042414 C419.405307,33.3788567 418.280286,34.320823 417.02177,35.0301686 C415.763254,35.7395142 414.310261,36.0941816 412.662749,36.0941816 C411.335586,36.0941816 410.134293,35.8348549 409.058834,35.3161936 C407.983374,34.7975323 407.06429,34.0386202 406.301553,33.0394345 C405.538815,32.0402488 404.951517,30.8008194 404.539639,29.3211093 C404.12776,27.8413992 403.921824,26.1405208 403.921824,24.2184231 C403.921824,22.494637 404.150642,20.892913 404.608285,19.4132028 C405.065927,17.9334927 405.729498,16.6521134 406.599019,15.5690266 C407.468539,14.4859398 408.521101,13.6355006 409.756735,13.0176835 C410.992369,12.3998664 412.388157,12.0909625 413.944141,12.0909625 C415.347577,12.0909625 416.541243,12.3197802 417.525174,12.7774225 C418.509105,13.2350648 419.390053,13.8833817 420.168045,14.7223926 L420.168045,2 L424.652917,2 Z M439.790632,12.1596085 C441.499164,12.1596085 443.043683,12.4380034 444.424238,12.9948015 C445.804792,13.5515997 446.97939,14.3524617 447.948066,15.3974116 C448.916742,16.4423616 449.6604,17.7008591 450.179061,19.1729418 C450.697722,20.6450246 450.957049,22.2963258 450.957049,24.1268951 C450.957049,25.9574643 450.697722,27.6125792 450.179061,29.0922893 C449.6604,30.5719994 448.916742,31.8304969 447.948066,32.8678195 C446.97939,33.905142 445.804792,34.7021904 444.424238,35.2589886 C443.043683,35.8157867 441.499164,36.0941816 439.790632,36.0941816 C438.066846,36.0941816 436.514699,35.8157867 435.134145,35.2589886 C433.753591,34.7021904 432.57518,33.905142 431.598876,32.8678195 C430.622572,31.8304969 429.871288,30.5719994 429.344999,29.0922893 C428.81871,27.6125792 428.55557,25.9574643 428.55557,24.1268951 C428.55557,22.2963258 428.81871,20.6450246 429.344999,19.1729418 C429.871288,17.7008591 430.622572,16.4423616 431.598876,15.3974116 C432.57518,14.3524617 433.753591,13.5515997 435.134145,12.9948015 C436.514699,12.4380034 438.066846,12.1596085 439.790632,12.1596085 Z M439.790632,32.6161175 C441.987315,32.6161175 443.627176,31.8762735 444.710263,30.3965633 C445.793349,28.9168532 446.334885,26.8346119 446.334885,24.1497771 C446.334885,21.4649422 445.793349,19.3788873 444.710263,17.8915498 C443.627176,16.4042122 441.987315,15.6605546 439.790632,15.6605546 C437.56344,15.6605546 435.904511,16.4042122 434.813797,17.8915498 C433.723083,19.3788873 433.177734,21.4649422 433.177734,24.1497771 C433.177734,26.8346119 433.723083,28.9168532 434.813797,30.3965633 C435.904511,31.8762735 437.56344,32.6161175 439.790632,32.6161175 Z M471.19745,16.8733007 C471.060157,17.0411029 470.92668,17.1745799 470.797015,17.2737357 C470.66735,17.3728916 470.480482,17.4224687 470.236406,17.4224687 C469.99233,17.4224687 469.736817,17.327128 469.469859,17.1364437 C469.202901,16.9457594 468.867302,16.7398235 468.463051,16.5186297 C468.0588,16.2974359 467.570656,16.0915 466.998603,15.9008157 C466.42655,15.7101314 465.721029,15.6147906 464.882018,15.6147906 C463.783676,15.6147906 462.815015,15.8130993 461.976004,16.2097227 C461.136993,16.606346 460.439099,17.1707631 459.882301,17.9029908 C459.325502,18.6352185 458.90219,19.5276076 458.61235,20.5801849 C458.322509,21.6327622 458.177591,22.8149871 458.177591,24.1268951 C458.177591,25.4845672 458.330137,26.6934875 458.635232,27.7536922 C458.940326,28.8138969 459.37508,29.706286 459.939506,30.4308864 C460.503931,31.1554867 461.190384,31.7046492 461.998886,32.0783904 C462.807387,32.4521316 463.707403,32.6389995 464.698962,32.6389995 C465.660011,32.6389995 466.453245,32.520777 467.07869,32.2843284 C467.704134,32.0478799 468.222788,31.7923668 468.634666,31.5177814 C469.046544,31.243196 469.389771,30.9876829 469.664356,30.7512344 C469.938941,30.5147858 470.22115,30.3965633 470.51099,30.3965633 C470.877104,30.3965633 471.159312,30.533854 471.357624,30.8084394 L472.639016,32.4559434 C472.1051,33.1118974 471.50636,33.6686872 470.842779,34.1263295 C470.179198,34.5839718 469.473676,34.9577075 468.726194,35.2475476 C467.978712,35.5373877 467.196918,35.7509509 466.380789,35.8882436 C465.56466,36.0255363 464.737103,36.0941816 463.898092,36.0941816 C462.448891,36.0941816 461.095053,35.8272276 459.836537,35.2933116 C458.57802,34.7593956 457.487322,33.9814153 456.56441,32.9593475 C455.641498,31.9372796 454.913095,30.6825958 454.379179,29.1952583 C453.845263,27.7079208 453.578309,26.0184833 453.578309,24.1268951 C453.578309,22.403109 453.818568,20.8090122 454.299092,19.3445568 C454.779617,17.8801014 455.488952,16.6177903 456.427118,15.5575856 C457.365285,14.497381 458.520815,13.6660099 459.893742,13.0634475 C461.266669,12.4608852 462.837884,12.1596085 464.607434,12.1596085 C466.270201,12.1596085 467.734634,12.4265625 469.000778,12.9604785 C470.266922,13.4943945 471.395756,14.249493 472.387314,15.2257966 L471.19745,16.8733007 Z M489.492881,16.5300707 C489.370843,16.7283824 489.24118,16.8694866 489.103887,16.9533877 C488.966594,17.0372888 488.791168,17.0792387 488.577601,17.0792387 C488.333525,17.0792387 488.062758,16.9953389 487.76529,16.8275367 C487.467823,16.6597345 487.109342,16.4766803 486.689836,16.2783687 C486.270331,16.080057 485.778372,15.8970028 485.213947,15.7292007 C484.649521,15.5613985 483.978323,15.4774986 483.200331,15.4774986 C482.559632,15.4774986 481.976146,15.5575848 481.449858,15.7177597 C480.923569,15.8779345 480.477375,16.0991249 480.111261,16.3813377 C479.745147,16.6635504 479.462938,16.9991498 479.264627,17.3881457 C479.066315,17.7771417 478.967161,18.1928272 478.967161,18.6352148 C478.967161,19.214895 479.138774,19.6954123 479.482006,20.0767809 C479.825237,20.4581495 480.275246,20.7861215 480.832044,21.0607069 C481.388842,21.3352923 482.021904,21.5831782 482.73125,21.8043719 C483.440595,22.0255657 484.165185,22.2581971 484.90504,22.502273 C485.644895,22.7463489 486.369484,23.0247438 487.07883,23.337466 C487.788176,23.6501883 488.421238,24.0391784 488.978036,24.5044481 C489.534834,24.9697178 489.984842,25.5303212 490.328074,26.1862751 C490.671306,26.8422291 490.842919,27.6430912 490.842919,28.5888853 C490.842919,29.6719721 490.648424,30.6749564 490.259428,31.5978684 C489.870432,32.5207804 489.298388,33.3178288 488.543278,33.9890375 C487.788168,34.6602462 486.853829,35.186527 485.740233,35.5678956 C484.626637,35.9492642 483.352885,36.1399456 481.918939,36.1399456 C480.317191,36.1399456 478.837503,35.8729916 477.479831,35.3390756 C476.122158,34.8051596 474.985697,34.1263336 474.070412,33.3025775 L475.122985,31.5864274 C475.245022,31.372861 475.397568,31.208875 475.580625,31.0944644 C475.763681,30.9800538 476.007754,30.9228494 476.312849,30.9228494 C476.602689,30.9228494 476.900152,31.029631 477.205247,31.2431974 C477.510341,31.4567638 477.87645,31.6893952 478.303583,31.9410984 C478.730715,32.1928017 479.249369,32.4216194 479.859559,32.6275585 C480.469748,32.8334975 481.232474,32.9364655 482.147759,32.9364655 C482.910496,32.9364655 483.574067,32.8411248 484.138493,32.6504405 C484.702918,32.4597562 485.171995,32.2004294 485.545736,31.8724524 C485.919477,31.5444754 486.197872,31.1669262 486.380929,30.7397934 C486.563986,30.3126605 486.655513,29.8626524 486.655513,29.3897553 C486.655513,28.7795656 486.4839,28.2723529 486.140668,27.8681022 C485.797436,27.4638515 485.347428,27.1168113 484.79063,26.8269712 C484.233832,26.5371311 483.596956,26.2854316 482.879983,26.0718651 C482.16301,25.8582987 481.430793,25.629481 480.683311,25.3854051 C479.935828,25.1413292 479.203612,24.8591207 478.486639,24.5387711 C477.769666,24.2184215 477.13279,23.8141768 476.575992,23.326025 C476.019193,22.8378732 475.569185,22.2429471 475.225954,21.5412289 C474.882722,20.8395107 474.711108,19.9852579 474.711108,18.9784448 C474.711108,18.0784149 474.897976,17.2165348 475.271718,16.3927787 C475.645459,15.5690225 476.186994,14.8444331 476.89634,14.2189886 C477.605685,13.5935441 478.48282,13.0939587 479.52777,12.7202175 C480.57272,12.3464763 481.766385,12.1596085 483.108803,12.1596085 C484.649532,12.1596085 486.041506,12.4036807 487.284768,12.8918325 C488.52803,13.3799843 489.592032,14.051183 490.476807,14.9054486 L489.492881,16.5300707 Z" id="js-library-docs"></path>
        </g>
    </g>
</svg>