<?xml version="1.0" encoding="UTF-8"?>
<svg width="231px" height="48px" viewBox="0 0 231 48" version="1.1" xmlns="http://www.w3.org/2000/svg" xmlns:xlink="http://www.w3.org/1999/xlink">
    <!-- Generator: Sketch 50 (54983) - http://www.bohemiancoding.com/sketch -->
    <title>Group</title>
    <desc>Created with Sketch.</desc>
    <defs></defs>
    <g id="identixone" stroke="none" stroke-width="1" fill="#000" fill-rule="evenodd">
        <g id="Group">
            <path d="M9.194,4.41997559 C9.194,5.02797863 9.0740012,5.59597295 8.834,6.12397559 C8.5939988,6.65197823 8.274002,7.10797367 7.874,7.49197559 C7.473998,7.87597751 6.9940028,8.17997447 6.434,8.40397559 C5.8739972,8.62797671 5.29000304,8.73997559 4.682,8.73997559 C3.4019936,8.73997559 2.33000432,8.31597983 1.466,7.46797559 C0.60199568,6.61997135 0.17,5.60398151 0.17,4.41997559 C0.17,3.84397271 0.28199888,3.29197823 0.506,2.76397559 C0.73000112,2.23597295 1.04999792,1.77997751 1.466,1.39597559 C1.88200208,1.01197367 2.36199728,0.699976786 2.906,0.459975586 C3.45000272,0.219974386 4.0419968,0.0999755859 4.682,0.0999755859 C5.29000304,0.0999755859 5.8739972,0.211974466 6.434,0.435975586 C6.9940028,0.659976706 7.473998,0.963973666 7.874,1.34797559 C8.274002,1.73197751 8.5939988,2.18797295 8.834,2.71597559 C9.0740012,3.24397823 9.194,3.81197255 9.194,4.41997559 Z M0.746,36 L0.746,12.096 L8.618,12.096 L8.618,36 L0.746,36 Z M31.554,36 L31.554,32.88 L31.458,32.88 C30.6899962,34.0960061 29.5940071,35.0319967 28.17,35.688 C26.7459929,36.3440033 25.234008,36.672 23.634,36.672 C21.841991,36.672 20.242007,36.3200035 18.834,35.616 C17.425993,34.9119965 16.2340049,33.9760058 15.258,32.808 C14.2819951,31.6399942 13.5380026,30.2880077 13.026,28.752 C12.5139974,27.2159923 12.258,25.6160083 12.258,23.952 C12.258,22.2879917 12.5219974,20.6960076 13.05,19.176 C13.5780026,17.6559924 14.3299951,16.3200058 15.306,15.168 C16.2820049,14.0159942 17.465993,13.1040034 18.858,12.432 C20.250007,11.7599966 21.8099914,11.424 23.538,11.424 C25.2980088,11.424 26.7859939,11.7599966 28.002,12.432 C29.2180061,13.1040034 30.1619966,13.839996 30.834,14.64 L30.93,14.64 L30.93,4 L38.802,4 L38.802,36 L31.554,36 Z M31.266,24 C31.266,23.2319962 31.1300014,22.4800037 30.858,21.744 C30.5859986,21.0079963 30.2020025,20.3520029 29.706,19.776 C29.2099975,19.1999971 28.6100035,18.7360018 27.906,18.384 C27.2019965,18.0319982 26.4020045,17.856 25.506,17.856 C24.5779954,17.856 23.7620035,18.0319982 23.058,18.384 C22.3539965,18.7360018 21.7620024,19.1919972 21.282,19.752 C20.8019976,20.3120028 20.4420012,20.9599963 20.202,21.696 C19.9619988,22.4320037 19.842,23.1839962 19.842,23.952 C19.842,24.7200038 19.9619988,25.4799962 20.202,26.232 C20.4420012,26.9840038 20.8019976,27.6479971 21.282,28.224 C21.7620024,28.8000029 22.3539965,29.2639982 23.058,29.616 C23.7620035,29.9680018 24.5779954,30.144 25.506,30.144 C26.4020045,30.144 27.2019965,29.9680018 27.906,29.616 C28.6100035,29.2639982 29.2099975,28.8000029 29.706,28.224 C30.2020025,27.6479971 30.5859986,26.9920037 30.858,26.256 C31.1300014,25.5199963 31.266,24.7680038 31.266,24 Z M59.706,21.312 C59.706,20.0639938 59.3140039,18.9920045 58.53,18.096 C57.7459961,17.1999955 56.5700078,16.752 55.002,16.752 C54.2339962,16.752 53.5300032,16.8719988 52.89,17.112 C52.2499968,17.3520012 51.6900024,17.6799979 51.21,18.096 C50.7299976,18.5120021 50.3460014,18.9999972 50.058,19.56 C49.7699986,20.1200028 49.6100002,20.703997 49.578,21.312 L59.706,21.312 Z M66.954,24.336 L66.954,25.296 C66.954,25.6160016 66.9380002,25.9199986 66.906,26.208 L49.578,26.208 C49.6420003,26.8800034 49.8419983,27.4879973 50.178,28.032 C50.5140017,28.5760027 50.9459974,29.047998 51.474,29.448 C52.0020026,29.848002 52.5939967,30.1599989 53.25,30.384 C53.9060033,30.6080011 54.5859965,30.72 55.29,30.72 C56.5380062,30.72 57.5939957,30.4880023 58.458,30.024 C59.3220043,29.5599977 60.0259973,28.9600037 60.57,28.224 L66.042,31.68 C64.9219944,33.3120082 63.4420092,34.5679956 61.602,35.448 C59.7619908,36.3280044 57.6260122,36.768 55.194,36.768 C53.401991,36.768 51.706008,36.4880028 50.106,35.928 C48.505992,35.3679972 47.106006,34.5520054 45.906,33.48 C44.705994,32.4079946 43.7620034,31.0880078 43.074,29.52 C42.3859966,27.9519922 42.042,26.1600101 42.042,24.144 C42.042,22.1919902 42.3779966,20.4240079 43.05,18.84 C43.7220034,17.2559921 44.6339942,15.9120055 45.786,14.808 C46.9380058,13.7039945 48.2979922,12.848003 49.866,12.24 C51.4340078,11.631997 53.1299909,11.328 54.954,11.328 C56.7140088,11.328 58.3299926,11.623997 59.802,12.216 C61.2740074,12.808003 62.5379947,13.6639944 63.594,14.784 C64.6500053,15.9040056 65.473997,17.263992 66.066,18.864 C66.658003,20.464008 66.954,22.2879898 66.954,24.336 Z M86.346,36 L86.346,22.944 C86.346,22.2719966 86.2900006,21.632003 86.178,21.024 C86.0659994,20.415997 85.8820013,19.8800023 85.626,19.416 C85.3699987,18.9519977 85.0100023,18.5840014 84.546,18.312 C84.0819977,18.0399986 83.4980035,17.904 82.794,17.904 C82.0899965,17.904 81.4740026,18.0399986 80.946,18.312 C80.4179974,18.5840014 79.9780018,18.9599976 79.626,19.44 C79.2739982,19.9200024 79.0100009,20.4719969 78.834,21.096 C78.6579991,21.7200031 78.57,22.3679966 78.57,23.04 L78.57,36 L70.65,36 L70.65,12.096 L78.282,12.096 L78.282,15.408 L78.378,15.408 C78.6660014,14.8959974 79.0419977,14.3920025 79.506,13.896 C79.9700023,13.3999975 80.5139969,12.9760018 81.138,12.624 C81.7620031,12.2719982 82.4419963,11.9840011 83.178,11.76 C83.9140037,11.5359989 84.6979958,11.424 85.53,11.424 C87.130008,11.424 88.4899944,11.7119971 89.61,12.288 C90.7300056,12.8640029 91.6339966,13.6079954 92.322,14.52 C93.0100034,15.4320046 93.5059985,16.4799941 93.81,17.664 C94.1140015,18.8480059 94.266,20.0319941 94.266,21.216 L94.266,36 L86.346,36 Z M108.762,18 L108.762,27.12 C108.762,28.2400056 108.977998,29.0799972 109.41,29.64 C109.842002,30.2000028 110.617994,30.48 111.738,30.48 C112.122002,30.48 112.529998,30.4480003 112.962,30.384 C113.394002,30.3199997 113.753999,30.2240006 114.042,30.096 L114.138,35.856 C113.593997,36.048001 112.906004,36.2159993 112.074,36.36 C111.241996,36.5040007 110.410004,36.576 109.578,36.576 C107.977992,36.576 106.634005,36.376002 105.546,35.976 C104.457995,35.575998 103.586003,35.0000038 102.93,34.248 C102.273997,33.4959962 101.802001,32.6000052 101.514,31.56 C101.225999,30.5199948 101.082,29.3600064 101.082,28.08 L101.082,18 L97.242,18 L97.242,12.096 L101.034,12.096 L101.034,4 L108.762,4 L108.762,12.096 L114.378,12.096 L114.378,18 L108.762,18 Z M127.318,43.6799854 C127.318,44.2879884 127.198001,44.8559827 126.958,45.3839854 C126.717999,45.911988 126.398002,46.3679834 125.998,46.7519854 C125.597998,47.1359873 125.118003,47.4399842 124.558,47.6639854 C123.997997,47.8879865 123.414003,47.9999854 122.806,47.9999854 C121.525994,47.9999854 120.454004,47.5759896 119.59,46.7279854 C118.725996,45.8799811 118.294,44.8639913 118.294,43.6799854 C118.294,43.1039825 118.405999,42.551988 118.63,42.0239854 C118.854001,41.4959827 119.173998,41.0399873 119.59,40.6559854 C120.006002,40.2719834 120.485997,39.9599866 121.03,39.7199854 C121.574003,39.4799842 122.165997,39.3599854 122.806,39.3599854 C123.414003,39.3599854 123.997997,39.4719842 124.558,39.6959854 C125.118003,39.9199865 125.597998,40.2239834 125.998,40.6079854 C126.398002,40.9919873 126.717999,41.4479827 126.958,41.9759854 C127.198001,42.503988 127.318,43.0719823 127.318,43.6799854 Z M118.87,36 L118.87,12.096 L126.742,12.096 L126.742,36 L118.87,36 Z M149.302,36 L144.166,28.656 L138.886,36 L129.766,36 L139.318,23.472 L130.678,12.096 L139.846,12.096 L144.31,18.48 L148.822,12.096 L157.702,12.096 L149.11,23.472 L158.566,36 L149.302,36 Z" id="identix"></path>
            <path d="M184.557172,24.001 C184.557172,25.7641235 184.271485,27.3802959 183.700102,28.8495655 C183.128719,30.3188351 182.320633,31.5840205 181.275819,32.6451597 C180.231005,33.7062989 178.982145,34.53071 177.529201,35.1184178 C176.076256,35.7061257 174.484571,35.9999752 172.754098,35.9999752 C171.023625,35.9999752 169.440103,35.7061257 168.003483,35.1184178 C166.566864,34.53071 165.326166,33.7062989 164.281352,32.6451597 C163.236538,31.5840205 162.428452,30.3188351 161.85707,28.8495655 C161.285687,27.3802959 161,25.7641235 161,24.001 C161,22.2378764 161.285687,20.6298666 161.85707,19.1769222 C162.428452,17.7239778 163.236538,16.4751174 164.281352,15.4303034 C165.326166,14.3854895 166.566864,13.5692408 168.003483,12.9815329 C169.440103,12.3938251 171.023625,12.0999756 172.754098,12.0999756 C174.484571,12.0999756 176.076256,12.3938251 177.529201,12.9815329 C178.982145,13.5692408 180.231005,14.3854895 181.275819,15.4303034 C182.320633,16.4751174 183.128719,17.7239778 183.700102,19.1769222 C184.271485,20.6298666 184.557172,22.2378764 184.557172,24.001 Z M183.479713,24.001 C183.479713,22.4990799 183.234838,21.0788073 182.745082,19.7401394 C182.255325,18.4014715 181.545189,17.2342359 180.614651,16.2383977 C179.684114,15.2425594 178.557691,14.4589606 177.235348,13.887578 C175.913005,13.3161954 174.41927,13.0305084 172.754098,13.0305084 C171.088926,13.0305084 169.603353,13.3161954 168.297336,13.887578 C166.991319,14.4589606 165.873058,15.2425594 164.94252,16.2383977 C164.011983,17.2342359 163.301847,18.4014715 162.81209,19.7401394 C162.322334,21.0788073 162.077459,22.4990799 162.077459,24.001 C162.077459,25.5355705 162.322334,26.9721681 162.81209,28.310836 C163.301847,29.6495039 164.011983,30.8167394 164.94252,31.8125777 C165.873058,32.808416 166.991319,33.6001772 168.297336,34.1878851 C169.603353,34.7755929 171.088926,35.0694424 172.754098,35.0694424 C174.41927,35.0694424 175.913005,34.7755929 177.235348,34.1878851 C178.557691,33.6001772 179.684114,32.808416 180.614651,31.8125777 C181.545189,30.8167394 182.255325,29.6495039 182.745082,28.310836 C183.234838,26.9721681 183.479713,25.5355705 183.479713,24.001 Z M189.431309,18.7116558 C189.757813,17.6668419 190.231238,16.7363184 190.851596,15.9200575 C191.471954,15.1037966 192.173928,14.4099852 192.957538,13.8386026 C193.741149,13.26722 194.590048,12.8346082 195.50426,12.5407543 C196.418472,12.2469003 197.36532,12.0999756 198.344833,12.0999756 C199.912054,12.0999756 201.218052,12.3775001 202.262866,12.9325575 C203.30768,13.487615 204.140254,14.2222387 204.760612,15.1364509 C205.38097,16.0506632 205.821745,17.0791365 206.082948,18.2219017 C206.344152,19.364667 206.474751,20.5237401 206.474751,21.6991558 L206.474751,35.3143195 L205.397292,35.3143195 L205.397292,21.7971066 C205.397292,20.8828944 205.299343,19.903396 205.10344,18.858582 C204.907537,17.8137681 204.540225,16.8669196 204.001493,16.0180083 C203.462761,15.169097 202.7363,14.4589606 201.822088,13.887578 C200.907875,13.3161954 199.748802,13.0305084 198.344833,13.0305084 C197.104117,13.0305084 195.936881,13.2835454 194.843092,13.7896272 C193.749302,14.295709 192.802454,15.0221703 192.002518,15.9690329 C191.202582,16.9158955 190.565908,18.0668061 190.092477,19.4217992 C189.619046,20.7767923 189.382334,22.3195023 189.382334,24.0499754 L189.382334,35.3143195 L188.304875,35.3143195 L188.304875,18.4667788 C188.304875,18.107624 188.296712,17.6668497 188.280387,17.1444427 C188.264062,16.6220357 188.247737,16.0914741 188.231411,15.5527419 C188.215086,15.0140097 188.190599,14.4997731 188.157948,14.0100165 C188.125298,13.52026 188.092648,13.1121357 188.059998,12.7856313 L189.137457,12.7856313 C189.170107,13.1121357 189.194594,13.52026 189.21092,14.0100165 C189.227245,14.4997731 189.24357,15.0303347 189.259895,15.6017173 C189.27622,16.1731 189.292545,16.728149 189.30887,17.2668812 C189.325196,17.8056134 189.333358,18.2872001 189.333358,18.7116558 L189.431309,18.7116558 Z M210.867437,23.8050983 C210.867437,25.1764167 211.071499,26.5313894 211.47963,27.8700573 C211.88776,29.2087252 212.508109,30.4086107 213.340695,31.4697499 C214.173281,32.530889 215.226242,33.3879501 216.499609,34.0409588 C217.772976,34.6939676 219.274874,35.020467 221.005347,35.020467 C222.76847,35.020467 224.335668,34.6694801 225.706986,33.9674957 C227.078304,33.2655114 228.270027,32.2452005 229.282191,30.9065327 L230.065797,31.5921884 C228.955683,33.0288076 227.657847,34.1225808 226.172252,34.8735408 C224.686658,35.6245008 222.964373,35.9999752 221.005347,35.9999752 C219.340174,35.9999752 217.821952,35.6979632 216.450634,35.0939301 C215.079315,34.4898971 213.895755,33.649161 212.899917,32.5716966 C211.904078,31.4942322 211.136804,30.2045593 210.598072,28.7026393 C210.05934,27.2007192 209.789978,25.5682219 209.789978,23.8050983 C209.789978,22.1072757 210.067503,20.5400783 210.62256,19.1034591 C211.177617,17.6668399 211.936729,16.4261419 212.899917,15.381328 C213.863104,14.336514 214.99769,13.5284279 216.303707,12.9570452 C217.609725,12.3856626 219.013673,12.0999756 220.515593,12.0999756 C222.278716,12.0999756 223.813264,12.4101501 225.119281,13.0305084 C226.425298,13.6508666 227.510909,14.4671153 228.376146,15.4792788 C229.241382,16.4914423 229.886219,17.6423529 230.310674,18.9320451 C230.73513,20.2217374 230.947355,21.5358977 230.947355,22.8745656 L230.947355,23.8050983 L210.867437,23.8050983 Z M230.129992,23.0999756 C230.096594,21.5970625 229.837763,20.2277623 229.353491,18.9920337 C228.869219,17.7563052 228.209617,16.6959324 227.374665,15.8108836 C226.539713,14.9258348 225.537786,14.2411847 224.368854,13.7569127 C223.199921,13.2726407 221.897416,13.0305084 220.461299,13.0305084 C218.7246,13.0305084 217.238408,13.3895322 216.00268,14.1075907 C214.766951,14.8256491 213.756675,15.7106847 212.97182,16.7627238 C212.186965,17.814763 211.610857,18.9168827 211.243479,20.069116 C210.8761,21.2213494 210.692413,22.2316258 210.692413,23.0999756 L230.129992,23.0999756 Z" id="one"></path>
        </g>
    </g>
</svg>